<?xml version="1.0" encoding="utf-8"?>
<!-- Generator: Adobe Illustrator 21.0.0, SVG Export Plug-In . SVG Version: 6.00 Build 0)  -->
<svg version="1.1" id="Layer_1" xmlns="http://www.w3.org/2000/svg" xmlns:xlink="http://www.w3.org/1999/xlink" x="0px" y="0px"
	 viewBox="0 0 1373.1 182.7" style="enable-background:new 0 0 1373.1 182.7;" xml:space="preserve">
<style type="text/css">
	.st0{fill:#1665C4;}
	.st1{fill:#49AEEC;}
	.st2{fill:#52ABDF;}
	.st3{fill:#F69350;}
	.st4{clip-path:url(#SVGID_2_);fill:#52ABDE;}
	.st5{clip-path:url(#SVGID_4_);fill:#52ABDE;}
	.st6{clip-path:url(#SVGID_6_);fill:#F5895F;}
	.st7{clip-path:url(#SVGID_8_);fill:#F5895F;}
	.st8{fill:none;stroke:#2F65AF;stroke-width:21;stroke-linecap:round;stroke-miterlimit:10;}
	.st9{fill:#F5895F;}
	.st10{clip-path:url(#SVGID_10_);fill:#F6924F;}
	.st11{clip-path:url(#SVGID_12_);fill:#F6924F;}
	.st12{clip-path:url(#SVGID_14_);fill:#52ABDF;}
	.st13{clip-path:url(#SVGID_16_);fill:#52ABDF;}
	.st14{clip-path:url(#SVGID_18_);fill:#52ABDF;}
	.st15{clip-path:url(#SVGID_20_);fill:#52ABDF;}
	.st16{clip-path:url(#SVGID_22_);fill:#F6924F;}
	.st17{clip-path:url(#SVGID_24_);fill:#F6924F;}
	.st18{clip-path:url(#SVGID_26_);fill:#F6924F;}
	.st19{clip-path:url(#SVGID_28_);fill:#52ACE0;}
	.st20{clip-path:url(#SVGID_30_);fill:#52ACE0;}
	.st21{clip-path:url(#SVGID_32_);fill:#F5895F;}
	.st22{fill:#676767;}
	.st23{fill:none;stroke:#676767;stroke-width:5;stroke-miterlimit:10;}
	.st24{fill:none;stroke:#F69350;stroke-width:5;stroke-linecap:round;stroke-miterlimit:10;}
</style>
<g>
	<path class="st0" d="M39.5,179.7c19.7-0.7,35.2-17.3,34.8-37c-0.1-5.4-1.4-10.5-3.6-15c-2.3-4.8-1.4-10.5,2.3-14.3l3.5-3.7
		c7.9-8.2,21-8.3,28.9-0.2l4.4,4.5c2.7,2.7,3.4,6.8,2,10.4c-1.3,3.2-1.9,6.7-1.8,10.3c0.5,13.5,11.8,24.3,25.3,24.1
		c14.2-0.2,25.5-12.1,24.8-26.3c-0.6-13.4-11.8-24-25.1-23.9c-3.1,0-6,0.6-8.7,1.6c-3.6,1.3-7.6,0.5-10.3-2.2l-9-9.2
		c-5.7-5.8-5.7-15.1-0.1-21l9.6-10.1c2.2-2.3,5.5-3.3,8.5-2.5c1.5,0.4,3.2,0.6,4.8,0.5c9.5-0.3,17.3-8.2,17.3-17.7
		c0-10.3-8.6-18.5-18.9-17.8c-9.5,0.6-16.9,8.7-16.7,18.2c0,1.6,0.3,3.2,0.8,4.7c0.9,3.1,0.1,6.4-2.1,8.7l-8.8,9.2
		c-5.8,6.1-15.5,6.2-21.4,0.1l-3.6-3.7c-3.4-3.5-4.3-8.8-2.1-13.1c2.6-5.2,4-11.2,3.8-17.5C77.3,17,60.7,1.3,41,1.7
		C20.7,2.1,4.7,19.1,5.5,39.4c0.7,19.8,17.5,35.5,37.3,35c5.1-0.1,9.8-1.3,14.2-3.3c4.5-2.1,9.8-1.1,13.2,2.4l3,3.1
		c6.5,6.6,6.5,17.2,0.1,23.9l-6.7,7c-3.7,3.8-9.3,5.1-14.2,3c-4.7-2-9.9-3.1-15.4-2.9c-19.6,0.3-35.4,16.9-35,36.7
		C2.4,164.5,19.3,180.4,39.5,179.7 M152,133.2c0.3,9.5-7.2,17.4-16.7,17.7s-17.4-7.2-17.7-16.7c-0.3-9.5,7.2-17.4,16.7-17.7
		C143.8,116.2,151.7,123.7,152,133.2 M118.4,48.4c-0.2-5.9,4.4-10.8,10.3-10.9c5.9-0.2,10.7,4.4,10.9,10.3s-4.4,10.8-10.3,10.9
		C123.5,58.9,118.6,54.3,118.4,48.4 M15.4,38.3C15,23.4,26.7,11.1,41.5,10.6c14.8-0.4,27.2,11.3,27.6,26.1S57.9,63.9,43,64.3
		C28.2,64.8,15.9,53.1,15.4,38.3 M11.4,144.3c-0.4-14.9,11.3-27.4,26.2-27.8s27.3,11.3,27.8,26.2c0.4,14.9-11.3,27.4-26.2,27.8
		C24.2,171,11.8,159.2,11.4,144.3"/>
	<g>
		<path class="st1" d="M120.8,77.9c-6.2,0.2-11.1,5.4-11,11.6c0.2,6.2,5.4,11.2,11.6,11s11.1-5.4,11-11.6
			C132.2,82.6,127,77.7,120.8,77.9"/>
		<path class="st1" d="M146.5,81.2c-4.4,0.1-7.9,3.8-7.8,8.2c0.1,4.4,3.8,7.9,8.2,7.8s7.9-3.8,7.8-8.2
			C154.6,84.5,150.9,81.1,146.5,81.2"/>
		<path class="st1" d="M91,111.2c-7.4,0.2-13.3,6.4-13.1,13.8c0.2,7.4,6.4,13.3,13.8,13.1s13.3-6.4,13.1-13.8
			C104.6,116.9,98.4,111,91,111.2"/>
		<path class="st1" d="M91.2,145.2c-4.2,0.1-7.6,3.7-7.4,7.9c0.1,4.2,3.7,7.6,7.9,7.5c4.2-0.1,7.6-3.7,7.4-7.9
			C98.9,148.4,95.4,145.1,91.2,145.2"/>
		<path class="st1" d="M90.4,48.8c-5.1,0.1-9,4.4-8.9,9.4c0.1,5.1,4.4,9,9.4,8.9c5.1-0.1,9-4.4,8.9-9.4
			C99.7,52.7,95.5,48.7,90.4,48.8"/>
		<path class="st1" d="M90.5,29.4c-3.6,0.1-6.4,3.1-6.3,6.7s3.1,6.4,6.7,6.3c3.6-0.1,6.4-3.1,6.3-6.7C97,32.1,94.1,29.3,90.5,29.4"
			/>
		<path class="st1" d="M62.6,80.1c-5.1,0.1-9,4.4-8.9,9.4c0.1,5.1,4.4,9,9.4,8.9c5.1-0.1,9-4.4,8.9-9.4
			C71.9,83.9,67.6,79.9,62.6,80.1"/>
		<path class="st1" d="M41,82.8c-3.6,0.1-6.4,3.1-6.3,6.7c0.1,3.6,3.1,6.4,6.7,6.3c3.6-0.1,6.4-3.1,6.3-6.7
			C47.5,85.5,44.5,82.7,41,82.8"/>
	</g>
</g>
<g>
	<path class="st2" d="M201.3,67.8h-6.1c-10.6,0-19.2-8.7-19.2-19.4c0-8.6,5.6-16.1,13.5-18.5c-0.4-1.7-0.6-3.5-0.6-5.2
		c0-12.7,10.2-23,22.7-23c6.6,0,12.9,3,17.2,8c3.1-1.1,6.3-1.6,9.6-1.6C254.7,8.1,268,21.5,268,38c0,7.1-2.5,14.1-7.1,19.5
		s-10.8,8.9-17.7,10c-1.5,0.2-2.9-0.8-3.2-2.3c-0.2-1.5,0.8-3,2.3-3.2c11.7-1.9,20.2-12,20.2-24c0-13.4-10.8-24.3-24-24.3
		c-3.3,0-6.4,0.6-9.4,1.9l-2.1,0.9l-1.3-1.8c-3.2-4.6-8.5-7.4-14.1-7.4c-9.5,0-17.2,7.8-17.2,17.4c0,2.2,0.4,4.3,1.2,6.3l1.3,3.3
		l-3.5,0.5c-6.8,0.9-11.9,6.8-11.9,13.7c0,7.6,6.1,13.8,13.7,13.8h6.1c1.5,0,2.8,1.3,2.8,2.8C204.1,66.6,202.8,67.8,201.3,67.8z"/>
	<path class="st3" d="M222,87.7c-1.5,0-2.8-1.3-2.8-2.8V38.3c0-1.5,1.2-2.8,2.8-2.8c1.5,0,2.8,1.3,2.8,2.8v46.6
		C224.8,86.4,223.5,87.7,222,87.7z"/>
	<path class="st3" d="M244.1,87.7c-0.3,0-0.7-0.1-1-0.2C236.9,85,233,79,233,72.3V30.8c0-1.5,1.2-2.8,2.8-2.8c1.5,0,2.8,1.3,2.8,2.8
		v41.5c0,4.4,2.6,8.3,6.7,10c1.4,0.6,2.1,2.2,1.5,3.6C246.2,87,245.2,87.7,244.1,87.7z"/>
	<path class="st3" d="M199.9,87.7c-1.1,0-2.1-0.7-2.6-1.7c-0.6-1.4,0.1-3.1,1.5-3.6c4.1-1.7,6.7-5.6,6.7-10V45
		c0-1.5,1.2-2.8,2.8-2.8c1.5,0,2.8,1.3,2.8,2.8v27.4c0,6.7-4,12.7-10.1,15.2C200.6,87.6,200.3,87.7,199.9,87.7z"/>
</g>
<g>
	<path class="st3" d="M316,87.7c-1.4,0-2.5-1.1-2.6-2.5c-0.3-11,3.9-21.3,11.7-29c11-10.9,27.6-14.5,42.2-9.1c1.3,0.5,2,2,1.5,3.3
		s-2,2-3.3,1.5c-12.7-4.7-27.2-1.6-36.8,7.9c-6.8,6.7-10.4,15.7-10.2,25.3C318.6,86.5,317.5,87.7,316,87.7L316,87.7z"/>
	<path class="st3" d="M301,87.7c-1.4,0-2.5-1.1-2.6-2.5c-0.3-14.9,5.4-29,16.1-39.5c9.2-9.1,21.4-14.8,34.4-15.8
		c1.4-0.1,2.7,0.9,2.8,2.3c0.1,1.4-0.9,2.6-2.4,2.8c-11.7,0.9-22.8,6-31.1,14.3c-9.6,9.6-14.8,22.3-14.6,35.8
		C303.6,86.5,302.5,87.7,301,87.7L301,87.7z"/>
	<path class="st3" d="M285.6,87.7c-1.4,0-2.6-1.1-2.6-2.5c-0.3-19,7.1-36.9,20.6-50.3c8.8-8.7,19.7-15,31.6-18.1
		c1.4-0.4,2.8,0.5,3.1,1.8c0.4,1.4-0.5,2.8-1.8,3.1c-11.1,2.9-21.2,8.7-29.3,16.8c-12.5,12.5-19.3,29-19.1,46.7
		C288.2,86.5,287,87.7,285.6,87.7L285.6,87.7z"/>
	<path class="st2" d="M347.4,87.7c-3.6,0-7.3-1.4-10.1-4.1l-10.5-10.4c-1-1-1-2.6,0-3.6s2.6-1,3.6,0L341,79.9
		c3.5,3.5,9.3,3.5,12.9,0l13.3-13.2c3.5-3.5,3.5-9.3,0-12.8L322.5,9.5c-1.7-1.7-4-2.6-6.4-2.6s-4.7,0.9-6.4,2.6l-13.4,13.2
		c-1.7,1.7-2.7,4-2.7,6.4s0.9,4.7,2.7,6.4c1,1,1,2.6,0,3.6s-2.6,1-3.6,0c-2.7-2.7-4.2-6.2-4.2-10s1.5-7.3,4.2-10L306,5.8
		c2.7-2.7,6.3-4.1,10.1-4.1c3.8,0,7.4,1.5,10.1,4.1l44.7,44.4c5.6,5.5,5.6,14.5,0,20l-13.4,13.3C354.7,86.3,351,87.7,347.4,87.7z"/>
	<path class="st2" d="M353.3,73.9c-2,0-4-0.8-5.5-2.3s-2.3-3.4-2.3-5.5s0.8-4,2.3-5.5c3-3,7.9-3,11,0l0,0l0,0
		c1.5,1.5,2.3,3.4,2.3,5.5s-0.8,4-2.3,5.5S355.3,73.9,353.3,73.9z M353.3,63.6c-0.7,0-1.3,0.3-1.8,0.8c-0.5,0.5-0.8,1.1-0.8,1.8
		s0.3,1.3,0.8,1.8c1,1,2.7,1,3.7,0c0.5-0.5,0.8-1.1,0.8-1.8c0-0.7-0.3-1.3-0.8-1.8l0,0C354.7,63.8,354,63.6,353.3,63.6z"/>
</g>
<g>
	<path class="st3" d="M442.6,61.3c-0.3,0-0.6-0.1-0.9-0.2c-1.3-0.5-1.9-2.1-1.4-3.4c1.6-4,3.7-7.8,6.4-11.1
		c10-12.2,26.7-17.3,41.5-12.6c1.3,0.4,2.1,1.9,1.7,3.3c-0.4,1.4-1.8,2.2-3.2,1.7c-12.9-4-27.5,0.4-36.2,11
		c-2.4,2.9-4.2,6.1-5.6,9.6C444.5,60.7,443.6,61.3,442.6,61.3z"/>
	<path class="st3" d="M432.6,48c-0.4,0-0.9-0.1-1.3-0.4c-1.2-0.7-1.6-2.3-0.9-3.6c12.2-21.6,38.8-32.2,61.8-24.7
		c1.3,0.4,2.1,1.9,1.7,3.3s-1.8,2.1-3.2,1.7c-20.8-6.8-44.8,2.8-55.9,22.3C434.3,47.5,433.4,48,432.6,48z"/>
	<path class="st3" d="M423.7,36.2c-0.4,0-0.8-0.1-1.2-0.3c-1.2-0.7-1.7-2.2-1.1-3.5c6.4-12.7,18.4-22.4,33.9-27.3
		c13.4-4.3,28.7-4.6,40.8-0.9c1.3,0.4,2.1,1.9,1.7,3.2c-0.4,1.4-1.8,2.2-3.2,1.8c-20.3-6.2-55.5-0.8-68.8,25.5
		C425.5,35.7,424.7,36.2,423.7,36.2z"/>
	<path class="st2" d="M433.2,71.7c-3.2,0-6.2-1.3-8.5-3.6c-4.7-4.8-4.7-12.6,0-17.4s12.3-4.8,16.9,0l0,0c2.3,2.3,3.5,5.4,3.5,8.7
		s-1.2,6.4-3.5,8.7C439.4,70.4,436.4,71.7,433.2,71.7z M433.2,52.3c-1.8,0-3.5,0.7-4.9,2.1c-2.7,2.8-2.7,7.3,0,10
		c1.3,1.3,3,2.1,4.9,2.1c1.8,0,3.6-0.7,4.9-2.1c1.3-1.3,2-3.1,2-5s-0.7-3.7-2-5l0,0C436.7,53,434.9,52.3,433.2,52.3z"/>
	<path class="st2" d="M475.3,71.7c-3.2,0-6.2-1.3-8.5-3.6c-2.3-2.3-3.5-5.4-3.5-8.7s1.2-6.4,3.5-8.7c4.7-4.8,12.3-4.8,16.9,0l0,0
		c4.7,4.8,4.7,12.6,0,17.4C481.5,70.4,478.5,71.7,475.3,71.7z M475.3,52.3c-1.8,0-3.5,0.7-4.9,2.1c-1.3,1.3-2,3.1-2,5s0.7,3.7,2,5
		c1.3,1.3,3,2.1,4.9,2.1c1.8,0,3.6-0.7,4.9-2.1c2.7-2.8,2.7-7.3,0-10l0,0C478.9,53,477.1,52.3,475.3,52.3z"/>
	<path class="st2" d="M465.5,62h-22.9c-1.4,0-2.5-1.2-2.5-2.6c0-1.4,1.1-2.6,2.5-2.6h22.9c1.4,0,2.5,1.2,2.5,2.6S466.9,62,465.5,62z
		"/>
	<path class="st2" d="M429.5,52.3c-1,0-2-0.6-2.4-1.7c-1.8-4.7-4.8-13.4-7.8-21.7c-1.7-4.8-3.5-9.8-5-14c-1.4-3.8-4.9-6.3-8.8-6.3
		h-17.1c-1.4,0-2.5-1.2-2.5-2.6s1.1-2.6,2.5-2.6h17.1c6,0,11.5,3.9,13.5,9.7c1.5,4.2,3.3,9.2,5,14.1c2.9,8.3,6,16.9,7.7,21.6
		c0.5,1.3-0.1,2.9-1.4,3.4C430.2,52.3,429.9,52.3,429.5,52.3z"/>
</g>
<g>
	<g>
		<g>
			<g>
				<g>
					<defs>
						<rect id="SVGID_1_" x="510" y="1.7" width="88" height="73"/>
					</defs>
					<clipPath id="SVGID_2_">
						<use xlink:href="#SVGID_1_"  style="overflow:visible;"/>
					</clipPath>
					<path class="st4" d="M545.8,74.6c-6.2,0-12.2-1.6-17.7-4.8c-17.1-10-23-32.2-13.2-49.6c4.8-8.4,12.5-14.5,21.7-17
						s18.8-1.3,27.1,3.6c6.2,3.6,11.2,9,14.3,15.5c0.8,1.7,0.1,3.8-1.6,4.7c-1.7,0.8-3.8,0.1-4.6-1.6c-2.5-5.3-6.5-9.6-11.5-12.5
						C553.6,9,545.9,8,538.4,10s-13.7,6.9-17.5,13.7c-7.9,14-3.1,32,10.7,40.1c6.7,3.9,14.4,4.9,21.8,2.9c7.5-2,13.7-6.9,17.5-13.7
						c1.6-2.8,2.7-5.9,3.3-9c0.4-1.9,2.2-3.1,4.1-2.8c1.9,0.4,3.1,2.2,2.7,4.1c-0.7,3.9-2.1,7.7-4.1,11.2
						c-4.8,8.4-12.5,14.5-21.7,17C552.1,74.1,549,74.6,545.8,74.6z"/>
				</g>
			</g>
		</g>
		<g>
			<g>
				<g>
					<defs>
						<rect id="SVGID_3_" x="510" y="1.7" width="88" height="73"/>
					</defs>
					<clipPath id="SVGID_4_">
						<use xlink:href="#SVGID_3_"  style="overflow:visible;"/>
					</clipPath>
					<path class="st5" d="M562.1,74.5c-3,0-6.1-0.4-9-1.2c-1.9-0.5-3-2.4-2.5-4.3s2.4-3,4.2-2.5c2.3,0.6,4.8,0.9,7.2,0.9
						c15.9,0,28.8-13.2,28.8-29.3c0-16.2-12.9-29.3-28.8-29.3c-2.5,0-4.9,0.3-7.2,0.9c-1.9,0.5-3.7-0.6-4.2-2.5s0.6-3.8,2.5-4.3
						c2.9-0.8,5.9-1.2,9-1.2c19.7,0,35.8,16.3,35.8,36.3C597.9,58.2,581.8,74.5,562.1,74.5z"/>
				</g>
			</g>
		</g>
		<g>
			<g>
				<g>
					<defs>
						<rect id="SVGID_5_" x="510" y="1.7" width="88" height="73"/>
					</defs>
					<clipPath id="SVGID_6_">
						<use xlink:href="#SVGID_5_"  style="overflow:visible;"/>
					</clipPath>
					<path class="st6" d="M545.9,54.2c-1.6,0-3-1.3-3-3v-26c0-1.7,1.3-3,3-3s3,1.3,3,3v25.9C548.9,52.8,547.5,54.2,545.9,54.2z"/>
				</g>
			</g>
		</g>
		<g>
			<g>
				<g>
					<defs>
						<rect id="SVGID_7_" x="510" y="1.7" width="88" height="73"/>
					</defs>
					<clipPath id="SVGID_8_">
						<use xlink:href="#SVGID_7_"  style="overflow:visible;"/>
					</clipPath>
					<path class="st7" d="M558.7,41.2h-25.5c-1.6,0-3-1.3-3-3s1.3-3,3-3h25.5c1.6,0,3,1.3,3,3S560.3,41.2,558.7,41.2z"/>
				</g>
			</g>
		</g>
	</g>
</g>
<g>
	<path class="st8" d="M696.6,33.1"/>
	<path class="st2" d="M673,83.7c-1.4,0-2.5-1.1-2.5-2.5s1.1-2.5,2.5-2.5c9.8,0,18.9-3.9,25.7-10.9c1-1,2.6-1,3.6,0s1,2.6,0,3.6
		C694.6,79.3,684.1,83.7,673,83.7z"/>
	<path class="st2" d="M703.7,22.2c-0.8,0-1.5-0.3-2-1C694.9,12,684.4,6.8,673,6.8c-1.4,0-2.5-1.1-2.5-2.5s1.1-2.6,2.5-2.6
		c6.6,0,12.8,1.5,18.6,4.5c5.5,2.8,10.4,7,14.2,12c0.8,1.1,0.6,2.7-0.5,3.5C704.8,22,704.3,22.2,703.7,22.2z"/>
	<path class="st9" d="M660.9,65.2c-1.1,0-2.2-0.4-3.2-1c-1.7-1.2-2.5-3.3-2.2-5.3l1.8-10.4c0-0.1,0-0.3-0.1-0.3l-7.6-7.4
		c-1.5-1.5-2-3.6-1.4-5.6s2.3-3.4,4.4-3.7l10.5-1.5c0.1,0,0.2-0.1,0.3-0.2l4.7-9.5c0.9-1.9,2.8-3,4.9-3s4,1.2,4.9,3l4.7,9.5
		c0.1,0.1,0.2,0.2,0.3,0.2l10.5,1.5c2.1,0.3,3.7,1.7,4.4,3.7c0.6,2,0.1,4.1-1.4,5.6l-7.6,7.4c-0.1,0.1-0.1,0.2-0.1,0.3l1.8,10.4
		c0.4,2.1-0.5,4.1-2.2,5.3c-1.7,1.2-3.9,1.4-5.7,0.4l-9.4-4.9c-0.1-0.1-0.2-0.1-0.4,0l-9.4,4.9C662.7,65,661.8,65.2,660.9,65.2z
		 M673,54.5c0.9,0,1.7,0.2,2.5,0.6l9.4,4.9c0.1,0,0.2,0.1,0.4,0s0.2-0.3,0.2-0.4l-1.8-10.4c-0.3-1.8,0.3-3.6,1.6-4.8l7.6-7.4
		c0,0,0.2-0.2,0.1-0.4c-0.1-0.2-0.2-0.3-0.3-0.3l-10.5-1.5c-1.8-0.3-3.3-1.4-4.1-3l-4.7-9.5c0-0.1-0.1-0.2-0.3-0.2s-0.3,0.2-0.3,0.2
		l-4.7,9.5c-0.8,1.6-2.3,2.7-4.1,3l-10.5,1.5c-0.1,0-0.2,0-0.3,0.3c-0.1,0.2,0.1,0.3,0.1,0.4l7.6,7.4c1.3,1.3,1.9,3.1,1.6,4.8
		l-1.9,10.5c0,0.1,0,0.2,0.2,0.4c0.2,0.1,0.3,0.1,0.4,0l9.4-4.9C671.3,54.7,672.1,54.5,673,54.5z"/>
	<path class="st9" d="M709.8,59.1c-1,0-1.9-0.3-2.7-0.9c-1.4-1-2.1-2.8-1.8-4.5l1.2-7.2l-5.2-5.1c-1.3-1.2-1.7-3-1.2-4.7
		s2-2.9,3.7-3.1l7.2-1.1l3.2-6.6c0.8-1.6,2.4-2.6,4.1-2.6s3.3,1,4.1,2.6l3.2,6.6l7.2,1.1c1.7,0.3,3.2,1.5,3.7,3.1
		c0.5,1.7,0.1,3.5-1.2,4.7l-5.2,5.1l1.2,7.2c0.3,1.7-0.4,3.5-1.8,4.5c-1.4,1-3.3,1.2-4.8,0.4l-6.5-3.4l-6.5,3.4
		C711.3,58.9,710.6,59.1,709.8,59.1z M718.5,50c0.7,0,1.5,0.2,2.1,0.5l5.9,3.1l-1.1-6.6c-0.3-1.5,0.2-3,1.3-4.1l4.8-4.6l-6.6-1
		c-1.5-0.2-2.8-1.2-3.5-2.5l-2.9-6l-2.9,6c-0.7,1.4-2,2.3-3.5,2.5l-6.6,1l4.8,4.6c1.1,1.1,1.6,2.6,1.3,4.1l-1.1,6.6l5.9-3.1
		C717,50.2,717.7,50,718.5,50z M725.9,32.6L725.9,32.6L725.9,32.6z M718.1,28.1L718.1,28.1L718.1,28.1z"/>
	<path class="st2" d="M673,83.7c-11.1,0-21.6-4.4-29.3-12.4c-1-1-1-2.6,0-3.6s2.6-1,3.6,0c6.8,7,15.9,10.9,25.7,10.9
		c1.4,0,2.5,1.1,2.5,2.5S674.4,83.7,673,83.7z"/>
	<path class="st2" d="M642.3,22.2c-0.5,0-1.1-0.2-1.5-0.5c-1.1-0.8-1.3-2.4-0.5-3.5c3.7-5,8.6-9.1,14.2-12c5.8-3,12.1-4.5,18.6-4.5
		c1.4,0,2.5,1.1,2.5,2.5s-1.1,2.5-2.5,2.5c-11.4,0-21.9,5.3-28.7,14.4C643.8,21.8,643,22.2,642.3,22.2z"/>
	<path class="st9" d="M618.9,59.1c-1,0-1.9-0.3-2.7-0.9c-1.4-1-2.1-2.8-1.8-4.5l1.2-7.2l-5.2-5.1c-1.3-1.2-1.7-3-1.2-4.7
		s2-2.9,3.7-3.1l7.2-1.1l3.2-6.6l2.3,1.1l-2.3-1.1c0.8-1.6,2.4-2.6,4.1-2.6c1.8,0,3.3,1,4.1,2.6l3.2,6.6l7.2,1.1
		c1.7,0.3,3.2,1.5,3.7,3.1c0.5,1.7,0.1,3.5-1.2,4.7l-5.2,5.1l1.2,7.2c0.3,1.7-0.4,3.5-1.8,4.5c-1.4,1-3.3,1.2-4.8,0.4l-6.5-3.4
		l-6.5,3.4C620.4,58.9,619.7,59.1,618.9,59.1z M627.5,50c0.7,0,1.5,0.2,2.1,0.5l5.9,3.1l-1.1-6.6c-0.3-1.5,0.2-3,1.3-4.1l4.8-4.6
		l-6.6-1c-1.5-0.2-2.8-1.2-3.5-2.5l-2.9-6l-2.9,6c-0.7,1.4-2,2.3-3.5,2.5l-6.6,1l4.8,4.6c1.1,1.1,1.6,2.6,1.3,4.1l-1.1,6.6l5.9-3.1
		C626.1,50.2,626.8,50,627.5,50z"/>
</g>
<g>
	<g>
		<g>
			<g>
				<defs>
					<rect id="SVGID_9_" x="749" y="1.7" width="42" height="60"/>
				</defs>
				<clipPath id="SVGID_10_">
					<use xlink:href="#SVGID_9_"  style="overflow:visible;"/>
				</clipPath>
				<path class="st10" d="M779.9,22.5c-0.5,0-1-0.2-1.3-0.6c-4.9-5-12.9-5-17.8,0c-0.7,0.8-2,0.8-2.7,0s-0.7-2,0-2.8
					c6.4-6.6,16.8-6.6,23.1,0c0.7,0.8,0.7,2,0,2.8C780.9,22.4,780.4,22.5,779.9,22.5z"/>
			</g>
		</g>
	</g>
	<g>
		<g>
			<g>
				<defs>
					<rect id="SVGID_11_" x="749" y="1.7" width="42" height="60"/>
				</defs>
				<clipPath id="SVGID_12_">
					<use xlink:href="#SVGID_11_"  style="overflow:visible;"/>
				</clipPath>
				<path class="st11" d="M764.4,27.6c-0.5,0-1-0.2-1.3-0.6c-0.7-0.8-0.7-2,0-2.8c3.7-3.8,9.6-3.8,13.3,0c0.7,0.8,0.7,2,0,2.8
					s-2,0.8-2.7,0c-2.2-2.2-5.7-2.2-7.9,0C765.4,27.4,764.9,27.6,764.4,27.6z"/>
			</g>
		</g>
	</g>
	<g>
		<g>
			<g>
				<defs>
					<rect id="SVGID_13_" x="749" y="1.7" width="42" height="60"/>
				</defs>
				<clipPath id="SVGID_14_">
					<use xlink:href="#SVGID_13_"  style="overflow:visible;"/>
				</clipPath>
				<path class="st12" d="M769.2,61.7c-5.2,0-8.9-2.1-10.9-6.2c-1.6-3.3-1.9-7.3-2.1-10.9c-0.1-2.4-0.3-5.3-1-6
					c-8.2-8.4-8.2-22.1,0-30.6c8.2-8.4,21.5-8.4,29.7,0c4,4.1,6.2,9.5,6.2,15.3s-2.2,11.2-6.2,15.3c-0.7,0.8-1.1,3.5-1.4,5.9
					C782.5,51.4,781,61.7,769.2,61.7z M770,5.6c-4.4,0-8.8,1.7-12.2,5.2c-6.7,6.9-6.7,18.1,0,25c1.7,1.8,1.9,4.9,2.1,8.6
					c0.5,8.1,1.4,13.4,9.2,13.4c7.9,0,9.3-5.7,10.4-13.8c0.5-3.5,0.9-6.5,2.5-8.2c3.2-3.3,5-7.8,5-12.5s-1.8-9.2-5-12.5
					C778.8,7.4,774.4,5.6,770,5.6z"/>
			</g>
		</g>
	</g>
	<g>
		<g>
			<g>
				<defs>
					<rect id="SVGID_15_" x="749" y="1.7" width="42" height="60"/>
				</defs>
				<clipPath id="SVGID_16_">
					<use xlink:href="#SVGID_15_"  style="overflow:visible;"/>
				</clipPath>
				<path class="st13" d="M780.5,49.3h-21.6c-1.1,0-1.9-0.9-1.9-2s0.9-2,1.9-2h21.6c1.1,0,1.9,0.9,1.9,2S781.6,49.3,780.5,49.3z"/>
			</g>
		</g>
	</g>
	<g>
		<g>
			<g>
				<defs>
					<rect id="SVGID_17_" x="749" y="1.7" width="42" height="60"/>
				</defs>
				<clipPath id="SVGID_18_">
					<use xlink:href="#SVGID_17_"  style="overflow:visible;"/>
				</clipPath>
				<path class="st14" d="M778.2,55.5h-18.7c-1.1,0-1.9-0.9-1.9-2s0.9-2,1.9-2h18.7c1.1,0,1.9,0.9,1.9,2
					C780.1,54.6,779.3,55.5,778.2,55.5z"/>
			</g>
		</g>
	</g>
</g>
<g>
	<g>
		<g>
			<g>
				<g>
					<defs>
						<rect id="SVGID_19_" x="801" y="1.7" width="64" height="60"/>
					</defs>
					<clipPath id="SVGID_20_">
						<use xlink:href="#SVGID_19_"  style="overflow:visible;"/>
					</clipPath>
					<path class="st15" d="M818.6,47.8h-4.2c-7.4,0-13.4-6.1-13.4-13.5c0-6,3.9-11.2,9.4-12.9c-0.3-1.2-0.4-2.4-0.4-3.6
						c0-8.8,7.1-16,15.8-16c4.6,0,9,2.1,12,5.6c2.1-0.7,4.4-1.1,6.7-1.1c11.3,0,20.6,9.4,20.6,20.8c0,5-1.8,9.8-5,13.6
						c-3.2,3.7-7.5,6.2-12.3,7c-1,0.2-2-0.6-2.2-1.6c-0.2-1.1,0.5-2.1,1.6-2.2c8.1-1.3,14-8.4,14-16.7c0-9.3-7.5-16.9-16.7-16.9
						c-2.3,0-4.5,0.5-6.5,1.3l-1.4,0.6l-1-1.5c-2.2-3.2-5.9-5.1-9.8-5.1c-6.6,0-12,5.4-12,12.1c0,1.5,0.3,3,0.8,4.4l0.9,2.3
						l-2.4,0.3c-4.7,0.6-8.2,4.7-8.2,9.6c0,5.3,4.3,9.6,9.5,9.6h4.2c1.1,0,1.9,0.9,1.9,1.9C820.5,47,819.6,47.8,818.6,47.8z"/>
				</g>
			</g>
		</g>
		<g>
			<g>
				<g>
					<defs>
						<rect id="SVGID_21_" x="801" y="1.7" width="64" height="60"/>
					</defs>
					<clipPath id="SVGID_22_">
						<use xlink:href="#SVGID_21_"  style="overflow:visible;"/>
					</clipPath>
					<path class="st16" d="M855.8,61.7h-10.4c-5.8,0-10.5-4.5-10.7-10.2c0-0.2,0-0.3,0-0.5V38.8c0-1.1,0.9-1.9,1.9-1.9
						c1.1,0,1.9,0.9,1.9,1.9v12.1c0,0.1,0,0.2,0,0.3c0.2,3.6,3.2,6.5,6.9,6.5h10.4c1.1,0,1.9,0.9,1.9,1.9
						C857.7,60.8,856.8,61.7,855.8,61.7z"/>
				</g>
			</g>
		</g>
		<g>
			<g>
				<g>
					<defs>
						<rect id="SVGID_23_" x="801" y="1.7" width="64" height="60"/>
					</defs>
					<clipPath id="SVGID_24_">
						<use xlink:href="#SVGID_23_"  style="overflow:visible;"/>
					</clipPath>
					<path class="st17" d="M820.6,61.7h-11.7c-1.1,0-1.9-0.9-1.9-1.9c0-1.1,0.9-1.9,1.9-1.9h11.7c3.7,0,6.7-2.9,6.9-6.5
						c0-0.1,0-0.2,0-0.3V38.8c0-1.1,0.9-1.9,1.9-1.9s1.9,0.9,1.9,1.9v12.1c0,0.2,0,0.3,0,0.5C831.1,57.2,826.4,61.7,820.6,61.7z"/>
				</g>
			</g>
		</g>
		<g>
			<g>
				<g>
					<defs>
						<rect id="SVGID_25_" x="801" y="1.7" width="64" height="60"/>
					</defs>
					<clipPath id="SVGID_26_">
						<use xlink:href="#SVGID_25_"  style="overflow:visible;"/>
					</clipPath>
					<path class="st18" d="M841.9,40.8h-16.5c-3.4,0-6.2-2.8-6.2-6.3v-10c0-3.5,2.8-6.3,6.2-6.3h16.5c3.4,0,6.2,2.8,6.2,6.3v10
						C848.1,38,845.3,40.8,841.9,40.8z M825.4,22.2c-1.3,0-2.3,1.1-2.3,2.4v10c0,1.3,1,2.4,2.3,2.4h16.5c1.3,0,2.3-1.1,2.3-2.4v-10
						c0-1.3-1-2.4-2.3-2.4C841.9,22.2,825.4,22.2,825.4,22.2z"/>
				</g>
			</g>
		</g>
	</g>
</g>
<g>
	<path class="st3" d="M919.4,44.3c-0.2,0-0.5,0-0.7-0.1c-0.9-0.4-1.4-1.5-1-2.4c1.1-2.9,2.7-5.5,4.6-7.9c7.1-8.7,19.1-12.3,29.7-9
		c1,0.3,1.5,1.3,1.2,2.3s-1.3,1.5-2.3,1.2c-9.2-2.9-19.6,0.3-25.8,7.9c-1.7,2.1-3,4.4-4,6.9C920.8,43.8,920.1,44.3,919.4,44.3z"/>
	<path class="st3" d="M912.3,34.8c-0.3,0-0.6-0.1-0.9-0.3c-0.9-0.5-1.2-1.7-0.7-2.5c8.7-15.4,27.7-23,44.1-17.6
		c1,0.3,1.5,1.4,1.2,2.3c-0.3,1-1.3,1.5-2.3,1.2c-14.9-4.8-32,2-39.9,16C913.5,34.4,912.9,34.8,912.3,34.8z"/>
	<path class="st3" d="M906,26.4c-0.3,0-0.6-0.1-0.8-0.2c-0.9-0.5-1.2-1.6-0.8-2.5c4.6-9.1,13.2-16,24.2-19.5
		c9.6-3,20.5-3.3,29.2-0.6c1,0.3,1.5,1.3,1.2,2.3s-1.3,1.5-2.3,1.3c-14.5-4.4-39.6-0.6-49.1,18.2C907.2,26,906.6,26.4,906,26.4z"/>
	<path class="st2" d="M912.7,51.7c-2.3,0-4.4-0.9-6-2.6c-3.3-3.4-3.3-9,0-12.4s8.8-3.4,12.1,0l0,0c1.6,1.7,2.5,3.9,2.5,6.2
		s-0.9,4.6-2.5,6.2C917.1,50.8,915,51.7,912.7,51.7z M912.7,37.8c-1.3,0-2.5,0.5-3.5,1.5c-1.9,2-1.9,5.2,0,7.2
		c0.9,1,2.2,1.5,3.5,1.5s2.6-0.5,3.5-1.5s1.4-2.2,1.4-3.6c0-1.4-0.5-2.6-1.4-3.6l0,0C915.2,38.3,914,37.8,912.7,37.8z"/>
	<path class="st2" d="M942.8,51.7c-2.3,0-4.4-0.9-6-2.6c-1.6-1.7-2.5-3.9-2.5-6.2s0.9-4.6,2.5-6.2c3.3-3.4,8.8-3.4,12.1,0l0,0
		c3.3,3.4,3.3,9,0,12.4C947.2,50.8,945.1,51.7,942.8,51.7z M942.8,37.8c-1.3,0-2.5,0.5-3.5,1.5c-0.9,1-1.4,2.2-1.4,3.6
		c0,1.4,0.5,2.6,1.4,3.6s2.2,1.5,3.5,1.5s2.6-0.5,3.5-1.5c1.9-2,1.9-5.2,0-7.2l0,0C945.3,38.3,944.1,37.8,942.8,37.8z"/>
	<path class="st2" d="M935.8,44.8h-16.4c-1,0-1.8-0.8-1.8-1.9c0-1,0.8-1.9,1.8-1.9h16.4c1,0,1.8,0.8,1.8,1.9
		C937.6,43.9,936.8,44.8,935.8,44.8z"/>
	<path class="st2" d="M910.1,37.9c-0.7,0-1.4-0.4-1.7-1.2c-1.3-3.4-3.5-9.6-5.6-15.5c-1.2-3.5-2.5-7-3.6-10c-1-2.7-3.5-4.5-6.3-4.5
		h-12.2c-1,0-1.8-0.8-1.8-1.9s0.8-1.9,1.8-1.9H893c4.3,0,8.2,2.8,9.7,6.9c1.1,3,2.3,6.6,3.6,10c2.1,5.9,4.3,12.1,5.5,15.4
		c0.4,1-0.1,2-1,2.4C910.5,37.8,910.3,37.9,910.1,37.9z"/>
</g>
<g>
	<path class="st2" d="M991.7,155.7l-18.3-18.4c-1.1-1.1-1.1-3,0-4.1s3-1.1,4.1,0l15.7,15.8l82.2-29.9c1.5-0.5,3.2,0.2,3.7,1.8
		c0.5,1.5-0.2,3.2-1.7,3.7L991.7,155.7z"/>
	<path class="st2" d="M991.7,137.8l-18.3-18.4c-1.1-1.1-1.1-3,0-4.1s3-1.1,4.1,0l15.7,15.8l82.2-29.9c1.5-0.5,3.2,0.2,3.7,1.8
		c0.5,1.5-0.2,3.2-1.7,3.8L991.7,137.8z"/>
	<path class="st2" d="M991.6,119.6l-1.3-1.2c-3.3-3-6.4-6.4-9.4-9.6c-2.4-2.6-4.9-5.2-7.4-7.7l0,0l-3.4-3.3h0.1l-0.2-0.1l4.5-1.4
		c0.3-0.1,0.7-0.2,1-0.3c3.7-1.2,7.5-2.6,11.4-4c4.3-1.6,8.8-3.2,13.4-4.7c1.5-0.5,3.2,0.4,3.6,1.9c0.5,1.5-0.4,3.2-1.9,3.7
		c-4.4,1.4-8.8,3-13.1,4.6c-2.7,1-5.4,2-8.1,2.9c1.4,1.5,2.9,3,4.3,4.5c2.6,2.7,5.2,5.5,7.9,8.1c20.5-7.2,41.1-14.8,61.1-22.2
		c5.5-2,11.1-4.1,16.7-6.1c-1.8-1.5-3.5-3-5.2-4.5c-1.4-1.2-2.9-2.4-4.3-3.7c-1.2-1.1-1.4-2.9-0.3-4.1c1-1.2,2.9-1.4,4.1-0.3
		c1.4,1.2,2.8,2.4,4.3,3.6c2.9,2.5,6,5.1,9,7.8l3.6,3.2l-0.2,0.1l0,0l-4.5,1.6c-7.1,2.6-14.2,5.2-21.2,7.8
		c-20.5,7.6-41.8,15.4-62.8,22.8L991.6,119.6z"/>
	<path class="st9" d="M1022.8,90.8c-20,0-36.3-16.4-36.3-36.6s16.3-36.6,36.3-36.6c20,0,36.3,16.4,36.3,36.6
		S1042.9,90.8,1022.8,90.8z M1022.8,23.4c-16.8,0-30.5,13.8-30.5,30.8S1006,85,1022.8,85s30.5-13.8,30.5-30.8
		S1039.7,23.4,1022.8,23.4z"/>
	<path class="st9" d="M1021.4,62.4L1010,50.9c-1.1-1.1-1.1-3,0-4.1s3-1.1,4.1,0l7.3,7.4l12.8-13c1.1-1.1,3-1.1,4.1,0s1.1,3,0,4.1
		L1021.4,62.4z"/>
	<g>
		<path class="st9" d="M1040.2,28.3c-0.4,0-0.9-0.1-1.3-0.3c-1.4-0.7-2-2.5-1.3-3.9l3.8-7.7c0.7-1.5,2.5-2,3.9-1.3s2,2.5,1.3,3.9
			l-3.8,7.7C1042.3,27.7,1041.3,28.3,1040.2,28.3z"/>
		<path class="st9" d="M1048.7,22.9c-0.4,0-0.9-0.1-1.3-0.3l-9.1-4.6c-1.4-0.7-2-2.5-1.3-3.9s2.5-2,3.9-1.3l9.1,4.6
			c1.4,0.7,2,2.5,1.3,3.9C1050.8,22.3,1049.8,22.9,1048.7,22.9z"/>
	</g>
	<g>
		<path class="st9" d="M1005.5,28.3c-1.1,0-2.1-0.6-2.6-1.6l-3.8-7.7c-0.7-1.5-0.1-3.2,1.3-3.9c1.4-0.7,3.2-0.1,3.9,1.3l3.8,7.7
			c0.7,1.5,0.1,3.2-1.3,3.9C1006.3,28.3,1005.9,28.3,1005.5,28.3z"/>
		<path class="st9" d="M997,22.9c-1.1,0-2.1-0.6-2.6-1.6c-0.7-1.4-0.1-3.2,1.3-3.9l9.1-4.6c1.4-0.7,3.2-0.1,3.9,1.3s0.1,3.2-1.3,3.9
			l-9.1,4.6C997.9,22.8,997.4,22.9,997,22.9z"/>
	</g>
	<path class="st9" d="M1022.8,23.5c-1.6,0-2.9-1.3-2.9-2.9v-16c0-1.6,1.3-2.9,2.9-2.9s2.9,1.3,2.9,2.9v15.9
		C1025.8,22.2,1024.5,23.5,1022.8,23.5z"/>
	<path class="st9" d="M1032.2,7.6h-18.9c-1.6,0-2.9-1.3-2.9-2.9s1.3-2.9,2.9-2.9h18.9c1.6,0,2.9,1.3,2.9,2.9S1033.8,7.6,1032.2,7.6z
		"/>
</g>
<g>
	<g>
		<g>
			<g>
				<g>
					<defs>
						<rect id="SVGID_27_" x="1091" y="1.7" width="118" height="118"/>
					</defs>
					<clipPath id="SVGID_28_">
						<use xlink:href="#SVGID_27_"  style="overflow:visible;"/>
					</clipPath>
					<path class="st19" d="M1199.6,75.7c-2,0-3.9-1.3-4.6-3.2l-10.3-27.6c-0.5-1.2-0.4-2.6,0.1-3.8c0.6-1.2,1.5-2.1,2.8-2.6l10.9-4
						c-0.7-1.5-1.5-3-2.4-4.4l-10.2,3.7c-2.5,0.9-4.5,2.7-5.6,5.1c-0.2,0.5-0.3,0.9-0.5,1.4c-3.4-1-9.8-3-16.2-6.3
						c-9.6-4.9-16.9-2.5-23.2,2.3c-3.2,0.1-7.6,0.4-11.9,0.8c-2.8,0.2-5.4,0.5-7.5,0.6c-0.1-1.3-0.3-2.5-0.9-3.7
						c-1.1-2.4-3.1-4.2-5.6-5.1l-8.9-3.2c-0.1,0.1-0.2,0.3-0.3,0.4c-1.2,1.1-2.2,2.3-3,3.6l10.6,3.9c1.2,0.5,2.2,1.4,2.8,2.6
						c0.6,1.2,0.6,2.5,0.1,3.8l-10.3,27.6c-0.7,1.9-2.6,3.2-4.6,3.2h-4.1c-0.2,0.1-0.5,0.2-0.7,0.3c0.3,1.5,0.5,3,0.8,4.6h4.1
						c3.1,0,5.9-1.4,7.7-3.8c1,0.7,2.1,1.6,3.4,2.5c2.9,2.2,6,4.5,7.4,5.7c9.2,7.7,20.2,15.9,22.4,17.4c2,1.3,5.7,2.8,8.5,2.8
						c1.1,0,3.9,0,5.8-1.6c2,0.8,4.2,0.7,6.2-0.1c2-0.9,3.6-2.5,4.6-4.6c1.9,0.4,4.1,0.1,6.1-0.9c1.9-0.9,3.3-2.4,4-4
						c1.8,0.2,3.7-0.4,5.4-1.7c2.4-1.9,3.5-4.6,3.2-7.3l6.2-3.5c1.8,2.5,4.7,4,7.9,4h1.3c0.4-1.7,1.1-3.3,1.6-4.9H1199.6z
						 M1179.3,83.4c-0.8,0.6-2,1-2.5,0.5h-0.1l-0.1-0.1c-1.8-1.4-9.6-9.4-14.5-14.5c-0.9-1-2.5-1-3.5-0.1s-1,2.5-0.1,3.5
						c1.1,1.2,10.3,10.7,14,14.1c-0.3,1.1-1.3,1.7-1.8,2c-1.6,0.8-3.2,0.7-3.8,0.1c0,0,0,0-0.1,0c0,0,0-0.1-0.1-0.1
						c-2.9-2.4-10.3-10.2-12-12c-0.9-1-2.5-1.1-3.5-0.1c-1,0.9-1.1,2.5-0.1,3.5c0.1,0.1,7.3,7.9,11.4,11.5c-0.4,1.1-1.2,2.1-2.3,2.6
						c-0.8,0.3-2,0.5-3.4-0.5c-3.5-3-10.6-10.5-12-12c-0.9-1-2.5-1-3.5-0.1s-1,2.5-0.1,3.5c1.7,1.8,6.5,6.9,10.2,10.4
						c-0.4,0.1-0.9,0.1-1.3,0.1c-1.6,0-4.4-1-5.8-2c-1.7-1.1-12.5-9.2-21.9-17c-1.4-1.2-4.6-3.6-7.6-5.8c-1.6-1.2-3-2.3-4.1-3.1
						l9.2-24.6c2.4-0.1,5.6-0.4,8.9-0.7c1.9-0.2,3.8-0.3,5.6-0.5c-2.8,2.9-7,8-6.4,12.9c0.3,2.2,1.5,4,3.5,5.3c4,2.5,11.5,0.4,15-4
						c2.3-0.3,3.9-0.9,5.6-1.8c2.9,2.7,6.7,5.9,10.8,9.2c7.1,5.8,15.1,12.4,17.2,16.1C1181.4,81.5,1179.8,83,1179.3,83.4
						 M1183.5,75.5c-3.3-4.4-10.4-10.2-17.3-15.9c-4.6-3.8-9-7.4-11.8-10.2c-0.8-0.8-1.9-0.9-2.9-0.4c-2.5,1.3-3.6,1.9-6.5,2.2
						c-0.8,0.1-1.4,0.5-1.8,1.1c-1.9,3.1-7.3,4.5-9,3.5c-1-0.6-1.2-1.2-1.2-1.7c-0.2-2.1,1.9-5.7,5.4-9.2c8.7-8.7,14.9-10.4,23-6.3
						c7.6,3.9,15.2,6.2,18.4,7c0.1,0.4,0.2,0.7,0.3,1.1l9.5,25.5L1183.5,75.5z"/>
				</g>
			</g>
		</g>
		<g>
			<g>
				<g>
					<defs>
						<rect id="SVGID_29_" x="1091" y="1.7" width="118" height="118"/>
					</defs>
					<clipPath id="SVGID_30_">
						<use xlink:href="#SVGID_29_"  style="overflow:visible;"/>
					</clipPath>
					<path class="st20" d="M1204.3,66.1c0.2-2.8,0.3-5.7,0-8.4V66.1z"/>
				</g>
			</g>
		</g>
		<g>
			<g>
				<g>
					<defs>
						<rect id="SVGID_31_" x="1091" y="1.7" width="118" height="118"/>
					</defs>
					<clipPath id="SVGID_32_">
						<use xlink:href="#SVGID_31_"  style="overflow:visible;"/>
					</clipPath>
					<path class="st21" d="M1150,119.7c-32.5,0-59-26.5-59-59s26.5-59,59-59s59,26.5,59,59S1182.5,119.7,1150,119.7z M1150,6.7
						c-29.8,0-54,24.2-54,54s24.2,54,54,54s54-24.2,54-54S1179.8,6.7,1150,6.7z"/>
				</g>
			</g>
		</g>
	</g>
</g>
<g>
	<path id="fb.svg" class="st22" d="M1234.8,31.7V19.2h3.9l0.6-5h-4.5v-3.4c0-0.6,0.1-1.2,0.4-1.7c0.5-0.5,1.2-0.7,2-0.7h2.5V3.9
		c-1.2-0.2-2.5-0.2-3.7-0.2c-1.7-0.1-3.3,0.5-4.5,1.7c-1.2,1.3-1.8,3.1-1.7,4.8v3.9h-4.1v5h4.1v12.6H1234.8L1234.8,31.7z"/>
</g>
<g>
	<path id="ins.svg" class="st22" d="M1276.1,10.6c1.2,0.7,2.3,1.8,3,3c1.5,2.5,1.5,5.7,0,8.2c-0.7,1.2-1.8,2.3-3,3
		c-2.5,1.5-5.7,1.5-8.2,0c-1.2-0.7-2.3-1.8-3-3c-1.5-2.5-1.5-5.7,0-8.2c0.7-1.2,1.8-2.3,3-3C1270.4,9.1,1273.6,9.1,1276.1,10.6z
		 M1275.8,21.5c2.1-2.1,2.1-5.5,0-7.6s-5.5-2.1-7.6,0s-2.1,5.5,0,7.6c1,1,2.4,1.6,3.8,1.6C1273.4,23.1,1274.8,22.5,1275.8,21.5z
		 M1281.9,7.8c-0.4-0.4-0.8-0.6-1.4-0.6c-1.1,0-1.9,0.8-1.9,1.9c0,0.5,0.2,1,0.6,1.4s0.8,0.6,1.4,0.6c0.5,0,1-0.2,1.3-0.6
		c0.4-0.4,0.6-0.8,0.6-1.3C1282.5,8.6,1282.3,8.1,1281.9,7.8L1281.9,7.8z M1288,17.7c0,3.1,0,5.3-0.1,6.7c0,1.2-0.2,2.4-0.6,3.5
		c-0.4,1.2-1.1,2.2-2,3.1s-1.9,1.5-3.1,2c-1.1,0.4-2.3,0.6-3.5,0.6c-1.4,0.1-3.6,0.1-6.7,0.1s-5.3,0-6.7-0.1c-1.2,0-2.4-0.3-3.5-0.7
		c-1.2-0.4-2.2-1-3.1-1.9s-1.6-1.9-2-3.1c-0.4-1.1-0.6-2.3-0.6-3.5c-0.1-1.4-0.1-3.6-0.1-6.7s0-5.3,0.1-6.7c0.1-1.2,0.3-2.4,0.6-3.5
		c0.4-1.2,1.1-2.2,2-3.1s1.9-1.6,3.1-2c1.1-0.4,2.3-0.6,3.5-0.6c1.4-0.1,3.6-0.1,6.7-0.1s5.3,0,6.7,0.1c1.2,0,2.4,0.2,3.5,0.6
		c2.4,0.8,4.2,2.7,5.1,5.1c0.4,1.2,0.6,2.4,0.7,3.6C1288,12.4,1288,14.6,1288,17.7z M1285.1,23.3c0.1-1,0.1-2.5,0.1-4.4v-2.3
		c0-2,0-3.4-0.1-4.4c0-1.3-0.2-2.6-0.6-3.9c-0.5-1.4-1.6-2.5-3.1-3.1c-1.3-0.4-2.6-0.6-3.9-0.6c-1.1,0-2.5-0.1-4.4-0.1h-2.3
		c-1.9,0-3.4,0-4.4,0.1c-1.3,0-2.6,0.2-3.9,0.6c-1.4,0.5-2.6,1.6-3.1,3.1c-0.4,1.3-0.6,2.6-0.6,3.9c-0.1,1-0.1,2.5-0.1,4.4v2.3
		c0,1.9,0,3.4,0.1,4.4c0,1.3,0.2,2.6,0.6,3.9c0.6,1.4,1.7,2.5,3.1,3.1c1.3,0.4,2.6,0.6,3.9,0.6c1,0,2.5,0.1,4.4,0.1h2.3
		c1.9,0,3.4,0,4.4-0.1c1.3,0,2.6-0.2,3.9-0.6c1.4-0.6,2.5-1.7,3.1-3.1C1284.9,25.9,1285,24.6,1285.1,23.3L1285.1,23.3z"/>
</g>
<g>
	<path id="link.svg" class="st22" d="M1305.3,12.3h-5.4v17.4h5.4V12.3z M1304.8,9c0.6-0.6,0.9-1.4,0.9-2.2c0-1.7-1.4-3.1-3.1-3.1
		s-3.1,1.4-3.1,3.1s1.4,3.1,3.1,3.1C1303.4,10,1304.2,9.6,1304.8,9z M1325.5,20.2c0.1-2-0.3-4.1-1.2-5.9c-1-1.6-2.8-2.4-5.3-2.4
		c-1.1,0-2.3,0.3-3.2,0.9c-0.8,0.4-1.4,1.1-1.9,1.9h-0.1v-2.4h-5.2v17.4h5.3v-8.6c-0.1-1.1,0.1-2.1,0.6-3.1c0.5-0.9,1.5-1.5,2.6-1.4
		c1.1-0.1,2.1,0.5,2.5,1.6c0.3,1,0.4,2,0.4,3v8.5h5.4L1325.5,20.2L1325.5,20.2z"/>
</g>
<g>
	<path class="st22" d="M1349.6,19h5.6c-1,2.7-3.7,4.6-6.8,4.6c-3.8,0-6.9-2.9-7.1-6.6c-0.2-3.9,3.1-7.1,7.1-7.1
		c1.8,0,3.5,0.7,4.8,1.8c0.3,0.3,0.8,0.3,1.1,0l2.1-1.9c0.3-0.3,0.3-0.8,0-1.1c-2-1.8-4.7-3-7.7-3c-6.3-0.1-11.7,4.9-11.7,10.9
		c0,6.1,5.1,11.1,11.5,11.1c6.1,0,11.2-4.6,11.5-10.4c0-0.1,0-2.5,0-2.5h-10.4c-0.4,0-0.8,0.3-0.8,0.7v2.7
		C1348.9,18.6,1349.2,19,1349.6,19z"/>
	<path class="st22" d="M1369.6,15v-2.6c0-0.4-0.3-0.6-0.7-0.6h-2.3c-0.4,0-0.7,0.3-0.7,0.6V15h-2.8c-0.4,0-0.7,0.3-0.7,0.6v2.2
		c0,0.4,0.3,0.6,0.7,0.6h2.8V21c0,0.4,0.3,0.6,0.7,0.6h2.3c0.4,0,0.7-0.3,0.7-0.6v-2.6h2.8c0.4,0,0.7-0.3,0.7-0.6v-2.1
		c0-0.4-0.3-0.6-0.7-0.6L1369.6,15L1369.6,15z"/>
</g>
<g>
	<polygon class="st22" points="705.4,116.7 705.4,116.7 724.1,116.7 724.1,112.2 700.1,112.2 700.1,116.7 	"/>
	<polygon class="st22" points="705.4,134.2 710.8,134.2 721.2,134.2 721.2,129.7 710.8,129.7 705.4,129.7 700.1,129.7 700.1,134.2 	
		"/>
	<polygon class="st22" points="710.8,149.3 705.4,149.3 700.1,149.3 700.1,153.8 724.8,153.8 724.8,149.3 	"/>
	<polygon class="st22" points="512.4,116.7 512.4,116.7 531.1,116.7 531.1,112.2 507.1,112.2 507.1,116.7 	"/>
	<polygon class="st22" points="512.4,134.2 517.8,134.2 528.2,134.2 528.2,129.7 517.8,129.7 512.4,129.7 507.1,129.7 507.1,134.2 	
		"/>
	<polygon class="st22" points="517.8,149.3 512.4,149.3 507.1,149.3 507.1,153.8 531.7,153.8 531.7,149.3 	"/>
	<polygon class="st22" points="191.1,112.2 196.4,112.2 196.4,149.3 214.5,149.3 214.5,153.8 191.1,153.8 	"/>
	<path class="st22" d="M230.6,112.2h6l14.1,41.6h-5.6l-7.3-23.2c-1.5-4.7-2.8-9.2-4.2-14h-0.3c-1.3,4.8-2.6,9.4-4.1,14l-7.3,23.2
		h-5.4L230.6,112.2z M224,136.9h19.2v4.2H224V136.9z"/>
	<path class="st22" d="M264.7,112.2h5.5l4.4,22.7c0.8,4.5,1.6,8.9,2.4,13.4h0.3c0.9-4.5,1.9-9,2.9-13.4l5.8-22.7h4.8l5.8,22.7
		c1,4.4,2,8.9,3,13.4h0.3c0.8-4.5,1.6-9,2.4-13.4l4.4-22.7h5.1l-8.6,41.6h-6.4l-6.3-25c-0.7-3.3-1.4-6.3-2-9.5h-0.3
		c-0.6,3.2-1.4,6.2-2.1,9.5l-6.2,25h-6.3L264.7,112.2z"/>
	<path class="st22" d="M352.3,112.2h12.4c8.5,0,14.3,2.9,14.3,10.2c0,4.1-2.2,7.8-6.1,9v0.3c5,1,8.5,4.3,8.5,10
		c0,8.2-6.5,12.2-15.8,12.2h-13.3V112.2z M363.7,129.9c7.1,0,10-2.6,10-6.8c0-4.9-3.3-6.7-9.8-6.7h-6.4v13.5H363.7z M364.8,149.6
		c7.1,0,11.3-2.6,11.3-8.2c0-5.1-4-7.5-11.3-7.5h-7.2v15.6L364.8,149.6L364.8,149.6z"/>
	<path class="st22" d="M402.2,112.2h10.4c12.8,0,19.7,7.4,19.7,20.7s-6.9,21-19.4,21h-10.6v-41.7H402.2z M412.2,149.5
		c9.7,0,14.6-6.1,14.6-16.6s-4.9-16.3-14.6-16.3h-4.7v32.9H412.2z"/>
	<polygon class="st22" points="441.3,112.2 465.2,112.2 465.2,116.7 446.6,116.7 446.6,129.7 462.3,129.7 462.3,134.2 446.6,134.2 
		446.6,149.3 465.9,149.3 465.9,153.8 441.3,153.8 	"/>
	<path class="st22" d="M469,112.2h5.6l6.7,22.5c1.5,4.9,2.5,8.9,4,13.7h0.3c1.5-4.9,2.6-8.8,4-13.7l6.7-22.5h5.4l-13.2,41.6h-6.1
		L469,112.2z"/>
	<polygon class="st22" points="540.5,112.2 545.8,112.2 545.8,149.3 564,149.3 564,153.8 540.5,153.8 	"/>
	<path class="st22" d="M618.1,112.2H630c9.3,0,15.6,3.1,15.6,12.3c0,8.8-6.3,12.9-15.4,12.9h-6.8v16.5h-5.3V112.2z M629.6,133
		c7.3,0,10.8-2.6,10.8-8.6c0-6-3.7-8-11-8h-5.9V133H629.6z"/>
	<path class="st22" d="M654,112.2h6.4l8,22.2c1,2.8,2,5.8,3,8.7h0.3c1-2.9,1.9-5.8,2.9-8.7l7.9-22.2h6.4v41.6H684v-22.9
		c0-3.6,0.4-8.6,0.7-12.3h-0.3l-3.3,9.5l-7.8,21.5h-3.5l-7.9-21.5l-3.3-9.5h-0.3c0.3,3.7,0.7,8.7,0.7,12.3v22.9h-5V112.2z"/>
	<path class="st22" d="M733.6,112.2h5.5l15.1,26.2l4.5,8.6h0.3c-0.3-4.2-0.7-8.9-0.7-13.2v-21.5h5v41.6h-5.5l-15.1-26.2l-4.5-8.6
		h-0.3c0.3,4.2,0.7,8.7,0.7,13v21.8h-5V112.2z"/>
	<polygon class="st22" points="783.2,116.7 770.6,116.7 770.6,112.2 801.1,112.2 801.1,116.7 788.5,116.7 788.5,153.8 783.2,153.8 	
		"/>
	<polygon class="st22" points="821.3,112.2 845.3,112.2 845.3,116.7 826.6,116.7 826.6,130.7 842.4,130.7 842.4,135.2 826.6,135.2 
		826.6,153.8 821.3,153.8 	"/>
	<rect x="852.6" y="112.2" class="st22" width="5.3" height="41.6"/>
	<path class="st22" d="M869.3,112.2h13c8.5,0,14.6,3,14.6,11.7c0,8.3-6.1,12.3-14.6,12.3h-7.7v17.6h-5.3V112.2z M881.6,131.9
		c6.5,0,10-2.6,10-8c0-5.5-3.6-7.4-10-7.4h-7v15.4H881.6z M881.3,134.8l4.1-2.7l12.7,21.8h-6L881.3,134.8z"/>
	<path class="st22" d="M905.4,112.2h6.4l8,22.2c1,2.8,2,5.8,3,8.7h0.3c1-2.9,1.9-5.8,2.9-8.7l7.9-22.2h6.4v41.6h-4.9v-22.9
		c0-3.6,0.4-8.6,0.7-12.3h-0.3l-3.3,9.5l-7.8,21.5h-3.5l-7.9-21.5l-3.3-9.5h-0.3c0.3,3.7,0.7,8.7,0.7,12.3v22.9h-4.8v-41.6H905.4z"
		/>
	<polygon class="st22" points="324.1,116.7 324.1,116.7 342.8,116.7 342.8,112.2 318.8,112.2 318.8,116.7 	"/>
	<polygon class="st22" points="324.1,134.2 329.5,134.2 339.9,134.2 339.9,129.7 329.5,129.7 324.1,129.7 318.8,129.7 318.8,134.2 	
		"/>
	<polygon class="st22" points="329.5,149.3 324.1,149.3 318.8,149.3 318.8,153.8 343.5,153.8 343.5,149.3 	"/>
	<circle class="st23" cx="588.2" cy="133" r="19.4"/>
</g>
<polyline class="st24" points="1256,109.4 1281.7,83.7 1256,58 "/>
<line class="st24" x1="1225.7" y1="83.7" x2="1281.7" y2="83.7"/>
</svg>